<mxfile host="app.diagrams.net" modified="2024-06-13T18:50:16.091Z" agent="Mozilla/5.0 (Macintosh; Intel Mac OS X 10_15_7) AppleWebKit/537.36 (KHTML, like Gecko) Chrome/126.0.0.0 Safari/537.36" etag="-pB9gAEsTIFByShf111C" version="24.5.3" type="github">
  <diagram name="PÃ¡gina-1" id="sR-9Ipz1DtobjVX7vWEs">
    <mxGraphModel dx="2074" dy="1121" grid="1" gridSize="10" guides="1" tooltips="1" connect="1" arrows="1" fold="1" page="1" pageScale="1" pageWidth="827" pageHeight="1169" math="0" shadow="0">
      <root>
        <mxCell id="0" />
        <mxCell id="1" parent="0" />
        <mxCell id="05YtGx7H-CWME4nsVqSi-127" value="payment_bill" style="swimlane;whiteSpace=wrap;html=1;" parent="1" vertex="1">
          <mxGeometry x="1020" y="30" width="410" height="540" as="geometry" />
        </mxCell>
        <mxCell id="05YtGx7H-CWME4nsVqSi-57" value="tbl_stores_singup" style="shape=table;startSize=30;container=1;collapsible=0;childLayout=tableLayout;fixedRows=1;rowLines=0;fontStyle=0;strokeColor=#82b366;fontSize=16;fillColor=#d5e8d4;" parent="05YtGx7H-CWME4nsVqSi-127" vertex="1">
          <mxGeometry x="20" y="60" width="370" height="240" as="geometry" />
        </mxCell>
        <mxCell id="05YtGx7H-CWME4nsVqSi-58" value="" style="shape=tableRow;horizontal=0;startSize=0;swimlaneHead=0;swimlaneBody=0;top=0;left=0;bottom=0;right=0;collapsible=0;dropTarget=0;fillColor=none;points=[[0,0.5],[1,0.5]];portConstraint=eastwest;strokeColor=inherit;fontSize=16;" parent="05YtGx7H-CWME4nsVqSi-57" vertex="1">
          <mxGeometry y="30" width="370" height="30" as="geometry" />
        </mxCell>
        <mxCell id="05YtGx7H-CWME4nsVqSi-59" value="" style="shape=partialRectangle;html=1;whiteSpace=wrap;connectable=0;fillColor=none;top=0;left=0;bottom=0;right=0;overflow=hidden;pointerEvents=1;strokeColor=inherit;fontSize=16;" parent="05YtGx7H-CWME4nsVqSi-58" vertex="1">
          <mxGeometry width="46" height="30" as="geometry">
            <mxRectangle width="46" height="30" as="alternateBounds" />
          </mxGeometry>
        </mxCell>
        <mxCell id="05YtGx7H-CWME4nsVqSi-60" value="store_id" style="shape=partialRectangle;html=1;whiteSpace=wrap;connectable=0;fillColor=none;top=0;left=0;bottom=0;right=0;align=left;spacingLeft=6;overflow=hidden;strokeColor=inherit;fontSize=16;" parent="05YtGx7H-CWME4nsVqSi-58" vertex="1">
          <mxGeometry x="46" width="163" height="30" as="geometry">
            <mxRectangle width="163" height="30" as="alternateBounds" />
          </mxGeometry>
        </mxCell>
        <mxCell id="05YtGx7H-CWME4nsVqSi-61" value="integer" style="shape=partialRectangle;html=1;whiteSpace=wrap;connectable=0;fillColor=none;top=0;left=0;bottom=0;right=0;align=left;spacingLeft=6;overflow=hidden;strokeColor=inherit;fontSize=16;" parent="05YtGx7H-CWME4nsVqSi-58" vertex="1">
          <mxGeometry x="209" width="161" height="30" as="geometry">
            <mxRectangle width="161" height="30" as="alternateBounds" />
          </mxGeometry>
        </mxCell>
        <mxCell id="05YtGx7H-CWME4nsVqSi-62" value="" style="shape=tableRow;horizontal=0;startSize=0;swimlaneHead=0;swimlaneBody=0;top=0;left=0;bottom=0;right=0;collapsible=0;dropTarget=0;fillColor=none;points=[[0,0.5],[1,0.5]];portConstraint=eastwest;strokeColor=inherit;fontSize=16;" parent="05YtGx7H-CWME4nsVqSi-57" vertex="1">
          <mxGeometry y="60" width="370" height="30" as="geometry" />
        </mxCell>
        <mxCell id="05YtGx7H-CWME4nsVqSi-63" value="" style="shape=partialRectangle;html=1;whiteSpace=wrap;connectable=0;fillColor=none;top=0;left=0;bottom=0;right=0;overflow=hidden;strokeColor=inherit;fontSize=16;" parent="05YtGx7H-CWME4nsVqSi-62" vertex="1">
          <mxGeometry width="46" height="30" as="geometry">
            <mxRectangle width="46" height="30" as="alternateBounds" />
          </mxGeometry>
        </mxCell>
        <mxCell id="05YtGx7H-CWME4nsVqSi-64" value="request_singup" style="shape=partialRectangle;html=1;whiteSpace=wrap;connectable=0;fillColor=none;top=0;left=0;bottom=0;right=0;align=left;spacingLeft=6;overflow=hidden;strokeColor=inherit;fontSize=16;" parent="05YtGx7H-CWME4nsVqSi-62" vertex="1">
          <mxGeometry x="46" width="163" height="30" as="geometry">
            <mxRectangle width="163" height="30" as="alternateBounds" />
          </mxGeometry>
        </mxCell>
        <mxCell id="05YtGx7H-CWME4nsVqSi-65" value="jsonb" style="shape=partialRectangle;html=1;whiteSpace=wrap;connectable=0;fillColor=none;top=0;left=0;bottom=0;right=0;align=left;spacingLeft=6;overflow=hidden;strokeColor=inherit;fontSize=16;" parent="05YtGx7H-CWME4nsVqSi-62" vertex="1">
          <mxGeometry x="209" width="161" height="30" as="geometry">
            <mxRectangle width="161" height="30" as="alternateBounds" />
          </mxGeometry>
        </mxCell>
        <mxCell id="05YtGx7H-CWME4nsVqSi-137" style="shape=tableRow;horizontal=0;startSize=0;swimlaneHead=0;swimlaneBody=0;top=0;left=0;bottom=0;right=0;collapsible=0;dropTarget=0;fillColor=none;points=[[0,0.5],[1,0.5]];portConstraint=eastwest;strokeColor=inherit;fontSize=16;" parent="05YtGx7H-CWME4nsVqSi-57" vertex="1">
          <mxGeometry y="90" width="370" height="30" as="geometry" />
        </mxCell>
        <mxCell id="05YtGx7H-CWME4nsVqSi-138" style="shape=partialRectangle;html=1;whiteSpace=wrap;connectable=0;fillColor=none;top=0;left=0;bottom=0;right=0;overflow=hidden;strokeColor=inherit;fontSize=16;" parent="05YtGx7H-CWME4nsVqSi-137" vertex="1">
          <mxGeometry width="46" height="30" as="geometry">
            <mxRectangle width="46" height="30" as="alternateBounds" />
          </mxGeometry>
        </mxCell>
        <mxCell id="05YtGx7H-CWME4nsVqSi-139" value="response_singup" style="shape=partialRectangle;html=1;whiteSpace=wrap;connectable=0;fillColor=none;top=0;left=0;bottom=0;right=0;align=left;spacingLeft=6;overflow=hidden;strokeColor=inherit;fontSize=16;" parent="05YtGx7H-CWME4nsVqSi-137" vertex="1">
          <mxGeometry x="46" width="163" height="30" as="geometry">
            <mxRectangle width="163" height="30" as="alternateBounds" />
          </mxGeometry>
        </mxCell>
        <mxCell id="05YtGx7H-CWME4nsVqSi-140" value="jsonb" style="shape=partialRectangle;html=1;whiteSpace=wrap;connectable=0;fillColor=none;top=0;left=0;bottom=0;right=0;align=left;spacingLeft=6;overflow=hidden;strokeColor=inherit;fontSize=16;" parent="05YtGx7H-CWME4nsVqSi-137" vertex="1">
          <mxGeometry x="209" width="161" height="30" as="geometry">
            <mxRectangle width="161" height="30" as="alternateBounds" />
          </mxGeometry>
        </mxCell>
        <mxCell id="I4H8tl8wlG_9HhP1iISP-1" style="shape=tableRow;horizontal=0;startSize=0;swimlaneHead=0;swimlaneBody=0;top=0;left=0;bottom=0;right=0;collapsible=0;dropTarget=0;fillColor=none;points=[[0,0.5],[1,0.5]];portConstraint=eastwest;strokeColor=inherit;fontSize=16;" vertex="1" parent="05YtGx7H-CWME4nsVqSi-57">
          <mxGeometry y="120" width="370" height="30" as="geometry" />
        </mxCell>
        <mxCell id="I4H8tl8wlG_9HhP1iISP-2" style="shape=partialRectangle;html=1;whiteSpace=wrap;connectable=0;fillColor=none;top=0;left=0;bottom=0;right=0;overflow=hidden;strokeColor=inherit;fontSize=16;" vertex="1" parent="I4H8tl8wlG_9HhP1iISP-1">
          <mxGeometry width="46" height="30" as="geometry">
            <mxRectangle width="46" height="30" as="alternateBounds" />
          </mxGeometry>
        </mxCell>
        <mxCell id="I4H8tl8wlG_9HhP1iISP-3" value="http_status" style="shape=partialRectangle;html=1;whiteSpace=wrap;connectable=0;fillColor=none;top=0;left=0;bottom=0;right=0;align=left;spacingLeft=6;overflow=hidden;strokeColor=inherit;fontSize=16;" vertex="1" parent="I4H8tl8wlG_9HhP1iISP-1">
          <mxGeometry x="46" width="163" height="30" as="geometry">
            <mxRectangle width="163" height="30" as="alternateBounds" />
          </mxGeometry>
        </mxCell>
        <mxCell id="I4H8tl8wlG_9HhP1iISP-4" value="integer" style="shape=partialRectangle;html=1;whiteSpace=wrap;connectable=0;fillColor=none;top=0;left=0;bottom=0;right=0;align=left;spacingLeft=6;overflow=hidden;strokeColor=inherit;fontSize=16;" vertex="1" parent="I4H8tl8wlG_9HhP1iISP-1">
          <mxGeometry x="209" width="161" height="30" as="geometry">
            <mxRectangle width="161" height="30" as="alternateBounds" />
          </mxGeometry>
        </mxCell>
        <mxCell id="05YtGx7H-CWME4nsVqSi-70" style="shape=tableRow;horizontal=0;startSize=0;swimlaneHead=0;swimlaneBody=0;top=0;left=0;bottom=0;right=0;collapsible=0;dropTarget=0;fillColor=none;points=[[0,0.5],[1,0.5]];portConstraint=eastwest;strokeColor=inherit;fontSize=16;" parent="05YtGx7H-CWME4nsVqSi-57" vertex="1">
          <mxGeometry y="150" width="370" height="40" as="geometry" />
        </mxCell>
        <mxCell id="05YtGx7H-CWME4nsVqSi-71" style="shape=partialRectangle;html=1;whiteSpace=wrap;connectable=0;fillColor=none;top=0;left=0;bottom=0;right=0;overflow=hidden;strokeColor=inherit;fontSize=16;" parent="05YtGx7H-CWME4nsVqSi-70" vertex="1">
          <mxGeometry width="46" height="40" as="geometry">
            <mxRectangle width="46" height="40" as="alternateBounds" />
          </mxGeometry>
        </mxCell>
        <mxCell id="05YtGx7H-CWME4nsVqSi-72" value="created_at" style="shape=partialRectangle;html=1;whiteSpace=wrap;connectable=0;fillColor=none;top=0;left=0;bottom=0;right=0;align=left;spacingLeft=6;overflow=hidden;strokeColor=inherit;fontSize=16;" parent="05YtGx7H-CWME4nsVqSi-70" vertex="1">
          <mxGeometry x="46" width="163" height="40" as="geometry">
            <mxRectangle width="163" height="40" as="alternateBounds" />
          </mxGeometry>
        </mxCell>
        <mxCell id="05YtGx7H-CWME4nsVqSi-73" value="date_time" style="shape=partialRectangle;html=1;whiteSpace=wrap;connectable=0;fillColor=none;top=0;left=0;bottom=0;right=0;align=left;spacingLeft=6;overflow=hidden;strokeColor=inherit;fontSize=16;" parent="05YtGx7H-CWME4nsVqSi-70" vertex="1">
          <mxGeometry x="209" width="161" height="40" as="geometry">
            <mxRectangle width="161" height="40" as="alternateBounds" />
          </mxGeometry>
        </mxCell>
        <mxCell id="05YtGx7H-CWME4nsVqSi-74" style="shape=tableRow;horizontal=0;startSize=0;swimlaneHead=0;swimlaneBody=0;top=0;left=0;bottom=0;right=0;collapsible=0;dropTarget=0;fillColor=none;points=[[0,0.5],[1,0.5]];portConstraint=eastwest;strokeColor=inherit;fontSize=16;" parent="05YtGx7H-CWME4nsVqSi-57" vertex="1">
          <mxGeometry y="190" width="370" height="30" as="geometry" />
        </mxCell>
        <mxCell id="05YtGx7H-CWME4nsVqSi-75" style="shape=partialRectangle;html=1;whiteSpace=wrap;connectable=0;fillColor=none;top=0;left=0;bottom=0;right=0;overflow=hidden;strokeColor=inherit;fontSize=16;" parent="05YtGx7H-CWME4nsVqSi-74" vertex="1">
          <mxGeometry width="46" height="30" as="geometry">
            <mxRectangle width="46" height="30" as="alternateBounds" />
          </mxGeometry>
        </mxCell>
        <mxCell id="05YtGx7H-CWME4nsVqSi-76" value="last_update" style="shape=partialRectangle;html=1;whiteSpace=wrap;connectable=0;fillColor=none;top=0;left=0;bottom=0;right=0;align=left;spacingLeft=6;overflow=hidden;strokeColor=inherit;fontSize=16;" parent="05YtGx7H-CWME4nsVqSi-74" vertex="1">
          <mxGeometry x="46" width="163" height="30" as="geometry">
            <mxRectangle width="163" height="30" as="alternateBounds" />
          </mxGeometry>
        </mxCell>
        <mxCell id="05YtGx7H-CWME4nsVqSi-77" value="date_time" style="shape=partialRectangle;html=1;whiteSpace=wrap;connectable=0;fillColor=none;top=0;left=0;bottom=0;right=0;align=left;spacingLeft=6;overflow=hidden;strokeColor=inherit;fontSize=16;" parent="05YtGx7H-CWME4nsVqSi-74" vertex="1">
          <mxGeometry x="209" width="161" height="30" as="geometry">
            <mxRectangle width="161" height="30" as="alternateBounds" />
          </mxGeometry>
        </mxCell>
        <mxCell id="05YtGx7H-CWME4nsVqSi-145" value="tbl_stores_bill" style="shape=table;startSize=30;container=1;collapsible=0;childLayout=tableLayout;fixedRows=1;rowLines=0;fontStyle=0;strokeColor=#82b366;fontSize=16;fillColor=#d5e8d4;" parent="05YtGx7H-CWME4nsVqSi-127" vertex="1">
          <mxGeometry x="20" y="310" width="370" height="240" as="geometry" />
        </mxCell>
        <mxCell id="05YtGx7H-CWME4nsVqSi-146" value="" style="shape=tableRow;horizontal=0;startSize=0;swimlaneHead=0;swimlaneBody=0;top=0;left=0;bottom=0;right=0;collapsible=0;dropTarget=0;fillColor=none;points=[[0,0.5],[1,0.5]];portConstraint=eastwest;strokeColor=inherit;fontSize=16;" parent="05YtGx7H-CWME4nsVqSi-145" vertex="1">
          <mxGeometry y="30" width="370" height="30" as="geometry" />
        </mxCell>
        <mxCell id="05YtGx7H-CWME4nsVqSi-147" value="" style="shape=partialRectangle;html=1;whiteSpace=wrap;connectable=0;fillColor=none;top=0;left=0;bottom=0;right=0;overflow=hidden;pointerEvents=1;strokeColor=inherit;fontSize=16;" parent="05YtGx7H-CWME4nsVqSi-146" vertex="1">
          <mxGeometry width="46" height="30" as="geometry">
            <mxRectangle width="46" height="30" as="alternateBounds" />
          </mxGeometry>
        </mxCell>
        <mxCell id="05YtGx7H-CWME4nsVqSi-148" value="store_id" style="shape=partialRectangle;html=1;whiteSpace=wrap;connectable=0;fillColor=none;top=0;left=0;bottom=0;right=0;align=left;spacingLeft=6;overflow=hidden;strokeColor=inherit;fontSize=16;" parent="05YtGx7H-CWME4nsVqSi-146" vertex="1">
          <mxGeometry x="46" width="163" height="30" as="geometry">
            <mxRectangle width="163" height="30" as="alternateBounds" />
          </mxGeometry>
        </mxCell>
        <mxCell id="05YtGx7H-CWME4nsVqSi-149" value="integer" style="shape=partialRectangle;html=1;whiteSpace=wrap;connectable=0;fillColor=none;top=0;left=0;bottom=0;right=0;align=left;spacingLeft=6;overflow=hidden;strokeColor=inherit;fontSize=16;" parent="05YtGx7H-CWME4nsVqSi-146" vertex="1">
          <mxGeometry x="209" width="161" height="30" as="geometry">
            <mxRectangle width="161" height="30" as="alternateBounds" />
          </mxGeometry>
        </mxCell>
        <mxCell id="05YtGx7H-CWME4nsVqSi-158" style="shape=tableRow;horizontal=0;startSize=0;swimlaneHead=0;swimlaneBody=0;top=0;left=0;bottom=0;right=0;collapsible=0;dropTarget=0;fillColor=none;points=[[0,0.5],[1,0.5]];portConstraint=eastwest;strokeColor=inherit;fontSize=16;" parent="05YtGx7H-CWME4nsVqSi-145" vertex="1">
          <mxGeometry y="60" width="370" height="30" as="geometry" />
        </mxCell>
        <mxCell id="05YtGx7H-CWME4nsVqSi-159" style="shape=partialRectangle;html=1;whiteSpace=wrap;connectable=0;fillColor=none;top=0;left=0;bottom=0;right=0;overflow=hidden;strokeColor=inherit;fontSize=16;" parent="05YtGx7H-CWME4nsVqSi-158" vertex="1">
          <mxGeometry width="46" height="30" as="geometry">
            <mxRectangle width="46" height="30" as="alternateBounds" />
          </mxGeometry>
        </mxCell>
        <mxCell id="05YtGx7H-CWME4nsVqSi-160" value="request_bill" style="shape=partialRectangle;html=1;whiteSpace=wrap;connectable=0;fillColor=none;top=0;left=0;bottom=0;right=0;align=left;spacingLeft=6;overflow=hidden;strokeColor=inherit;fontSize=16;" parent="05YtGx7H-CWME4nsVqSi-158" vertex="1">
          <mxGeometry x="46" width="163" height="30" as="geometry">
            <mxRectangle width="163" height="30" as="alternateBounds" />
          </mxGeometry>
        </mxCell>
        <mxCell id="05YtGx7H-CWME4nsVqSi-161" value="&lt;div&gt;jsonb&lt;/div&gt;" style="shape=partialRectangle;html=1;whiteSpace=wrap;connectable=0;fillColor=none;top=0;left=0;bottom=0;right=0;align=left;spacingLeft=6;overflow=hidden;strokeColor=inherit;fontSize=16;" parent="05YtGx7H-CWME4nsVqSi-158" vertex="1">
          <mxGeometry x="209" width="161" height="30" as="geometry">
            <mxRectangle width="161" height="30" as="alternateBounds" />
          </mxGeometry>
        </mxCell>
        <mxCell id="s_7tr-dG0rgTzwTSZN3e-1" style="shape=tableRow;horizontal=0;startSize=0;swimlaneHead=0;swimlaneBody=0;top=0;left=0;bottom=0;right=0;collapsible=0;dropTarget=0;fillColor=none;points=[[0,0.5],[1,0.5]];portConstraint=eastwest;strokeColor=inherit;fontSize=16;" parent="05YtGx7H-CWME4nsVqSi-145" vertex="1">
          <mxGeometry y="90" width="370" height="30" as="geometry" />
        </mxCell>
        <mxCell id="s_7tr-dG0rgTzwTSZN3e-2" style="shape=partialRectangle;html=1;whiteSpace=wrap;connectable=0;fillColor=none;top=0;left=0;bottom=0;right=0;overflow=hidden;strokeColor=inherit;fontSize=16;" parent="s_7tr-dG0rgTzwTSZN3e-1" vertex="1">
          <mxGeometry width="46" height="30" as="geometry">
            <mxRectangle width="46" height="30" as="alternateBounds" />
          </mxGeometry>
        </mxCell>
        <mxCell id="s_7tr-dG0rgTzwTSZN3e-3" value="response_bill" style="shape=partialRectangle;html=1;whiteSpace=wrap;connectable=0;fillColor=none;top=0;left=0;bottom=0;right=0;align=left;spacingLeft=6;overflow=hidden;strokeColor=inherit;fontSize=16;" parent="s_7tr-dG0rgTzwTSZN3e-1" vertex="1">
          <mxGeometry x="46" width="163" height="30" as="geometry">
            <mxRectangle width="163" height="30" as="alternateBounds" />
          </mxGeometry>
        </mxCell>
        <mxCell id="s_7tr-dG0rgTzwTSZN3e-4" value="jsonb" style="shape=partialRectangle;html=1;whiteSpace=wrap;connectable=0;fillColor=none;top=0;left=0;bottom=0;right=0;align=left;spacingLeft=6;overflow=hidden;strokeColor=inherit;fontSize=16;" parent="s_7tr-dG0rgTzwTSZN3e-1" vertex="1">
          <mxGeometry x="209" width="161" height="30" as="geometry">
            <mxRectangle width="161" height="30" as="alternateBounds" />
          </mxGeometry>
        </mxCell>
        <mxCell id="I4H8tl8wlG_9HhP1iISP-5" style="shape=tableRow;horizontal=0;startSize=0;swimlaneHead=0;swimlaneBody=0;top=0;left=0;bottom=0;right=0;collapsible=0;dropTarget=0;fillColor=none;points=[[0,0.5],[1,0.5]];portConstraint=eastwest;strokeColor=inherit;fontSize=16;" vertex="1" parent="05YtGx7H-CWME4nsVqSi-145">
          <mxGeometry y="120" width="370" height="30" as="geometry" />
        </mxCell>
        <mxCell id="I4H8tl8wlG_9HhP1iISP-6" style="shape=partialRectangle;html=1;whiteSpace=wrap;connectable=0;fillColor=none;top=0;left=0;bottom=0;right=0;overflow=hidden;strokeColor=inherit;fontSize=16;" vertex="1" parent="I4H8tl8wlG_9HhP1iISP-5">
          <mxGeometry width="46" height="30" as="geometry">
            <mxRectangle width="46" height="30" as="alternateBounds" />
          </mxGeometry>
        </mxCell>
        <mxCell id="I4H8tl8wlG_9HhP1iISP-7" value="http_status" style="shape=partialRectangle;html=1;whiteSpace=wrap;connectable=0;fillColor=none;top=0;left=0;bottom=0;right=0;align=left;spacingLeft=6;overflow=hidden;strokeColor=inherit;fontSize=16;" vertex="1" parent="I4H8tl8wlG_9HhP1iISP-5">
          <mxGeometry x="46" width="163" height="30" as="geometry">
            <mxRectangle width="163" height="30" as="alternateBounds" />
          </mxGeometry>
        </mxCell>
        <mxCell id="I4H8tl8wlG_9HhP1iISP-8" value="integer" style="shape=partialRectangle;html=1;whiteSpace=wrap;connectable=0;fillColor=none;top=0;left=0;bottom=0;right=0;align=left;spacingLeft=6;overflow=hidden;strokeColor=inherit;fontSize=16;" vertex="1" parent="I4H8tl8wlG_9HhP1iISP-5">
          <mxGeometry x="209" width="161" height="30" as="geometry">
            <mxRectangle width="161" height="30" as="alternateBounds" />
          </mxGeometry>
        </mxCell>
        <mxCell id="05YtGx7H-CWME4nsVqSi-166" style="shape=tableRow;horizontal=0;startSize=0;swimlaneHead=0;swimlaneBody=0;top=0;left=0;bottom=0;right=0;collapsible=0;dropTarget=0;fillColor=none;points=[[0,0.5],[1,0.5]];portConstraint=eastwest;strokeColor=inherit;fontSize=16;" parent="05YtGx7H-CWME4nsVqSi-145" vertex="1">
          <mxGeometry y="150" width="370" height="40" as="geometry" />
        </mxCell>
        <mxCell id="05YtGx7H-CWME4nsVqSi-167" style="shape=partialRectangle;html=1;whiteSpace=wrap;connectable=0;fillColor=none;top=0;left=0;bottom=0;right=0;overflow=hidden;strokeColor=inherit;fontSize=16;" parent="05YtGx7H-CWME4nsVqSi-166" vertex="1">
          <mxGeometry width="46" height="40" as="geometry">
            <mxRectangle width="46" height="40" as="alternateBounds" />
          </mxGeometry>
        </mxCell>
        <mxCell id="05YtGx7H-CWME4nsVqSi-168" value="created_at" style="shape=partialRectangle;html=1;whiteSpace=wrap;connectable=0;fillColor=none;top=0;left=0;bottom=0;right=0;align=left;spacingLeft=6;overflow=hidden;strokeColor=inherit;fontSize=16;" parent="05YtGx7H-CWME4nsVqSi-166" vertex="1">
          <mxGeometry x="46" width="163" height="40" as="geometry">
            <mxRectangle width="163" height="40" as="alternateBounds" />
          </mxGeometry>
        </mxCell>
        <mxCell id="05YtGx7H-CWME4nsVqSi-169" value="date_time" style="shape=partialRectangle;html=1;whiteSpace=wrap;connectable=0;fillColor=none;top=0;left=0;bottom=0;right=0;align=left;spacingLeft=6;overflow=hidden;strokeColor=inherit;fontSize=16;" parent="05YtGx7H-CWME4nsVqSi-166" vertex="1">
          <mxGeometry x="209" width="161" height="40" as="geometry">
            <mxRectangle width="161" height="40" as="alternateBounds" />
          </mxGeometry>
        </mxCell>
        <mxCell id="05YtGx7H-CWME4nsVqSi-170" style="shape=tableRow;horizontal=0;startSize=0;swimlaneHead=0;swimlaneBody=0;top=0;left=0;bottom=0;right=0;collapsible=0;dropTarget=0;fillColor=none;points=[[0,0.5],[1,0.5]];portConstraint=eastwest;strokeColor=inherit;fontSize=16;" parent="05YtGx7H-CWME4nsVqSi-145" vertex="1">
          <mxGeometry y="190" width="370" height="30" as="geometry" />
        </mxCell>
        <mxCell id="05YtGx7H-CWME4nsVqSi-171" style="shape=partialRectangle;html=1;whiteSpace=wrap;connectable=0;fillColor=none;top=0;left=0;bottom=0;right=0;overflow=hidden;strokeColor=inherit;fontSize=16;" parent="05YtGx7H-CWME4nsVqSi-170" vertex="1">
          <mxGeometry width="46" height="30" as="geometry">
            <mxRectangle width="46" height="30" as="alternateBounds" />
          </mxGeometry>
        </mxCell>
        <mxCell id="05YtGx7H-CWME4nsVqSi-172" value="last_update" style="shape=partialRectangle;html=1;whiteSpace=wrap;connectable=0;fillColor=none;top=0;left=0;bottom=0;right=0;align=left;spacingLeft=6;overflow=hidden;strokeColor=inherit;fontSize=16;" parent="05YtGx7H-CWME4nsVqSi-170" vertex="1">
          <mxGeometry x="46" width="163" height="30" as="geometry">
            <mxRectangle width="163" height="30" as="alternateBounds" />
          </mxGeometry>
        </mxCell>
        <mxCell id="05YtGx7H-CWME4nsVqSi-173" value="date_time" style="shape=partialRectangle;html=1;whiteSpace=wrap;connectable=0;fillColor=none;top=0;left=0;bottom=0;right=0;align=left;spacingLeft=6;overflow=hidden;strokeColor=inherit;fontSize=16;" parent="05YtGx7H-CWME4nsVqSi-170" vertex="1">
          <mxGeometry x="209" width="161" height="30" as="geometry">
            <mxRectangle width="161" height="30" as="alternateBounds" />
          </mxGeometry>
        </mxCell>
        <mxCell id="s_7tr-dG0rgTzwTSZN3e-5" value="stores" style="swimlane;whiteSpace=wrap;html=1;" parent="1" vertex="1">
          <mxGeometry x="200" y="180" width="510" height="250" as="geometry" />
        </mxCell>
        <mxCell id="05YtGx7H-CWME4nsVqSi-40" value="stores" style="shape=table;startSize=30;container=1;collapsible=0;childLayout=tableLayout;fixedRows=1;rowLines=0;fontStyle=0;strokeColor=#6c8ebf;fontSize=16;fillColor=#dae8fc;" parent="s_7tr-dG0rgTzwTSZN3e-5" vertex="1">
          <mxGeometry x="60" y="60" width="370" height="130" as="geometry" />
        </mxCell>
        <mxCell id="05YtGx7H-CWME4nsVqSi-41" value="" style="shape=tableRow;horizontal=0;startSize=0;swimlaneHead=0;swimlaneBody=0;top=0;left=0;bottom=0;right=0;collapsible=0;dropTarget=0;fillColor=none;points=[[0,0.5],[1,0.5]];portConstraint=eastwest;strokeColor=inherit;fontSize=16;" parent="05YtGx7H-CWME4nsVqSi-40" vertex="1">
          <mxGeometry y="30" width="370" height="30" as="geometry" />
        </mxCell>
        <mxCell id="05YtGx7H-CWME4nsVqSi-42" value="" style="shape=partialRectangle;html=1;whiteSpace=wrap;connectable=0;fillColor=none;top=0;left=0;bottom=0;right=0;overflow=hidden;pointerEvents=1;strokeColor=inherit;fontSize=16;" parent="05YtGx7H-CWME4nsVqSi-41" vertex="1">
          <mxGeometry width="46" height="30" as="geometry">
            <mxRectangle width="46" height="30" as="alternateBounds" />
          </mxGeometry>
        </mxCell>
        <mxCell id="05YtGx7H-CWME4nsVqSi-43" value="store_id" style="shape=partialRectangle;html=1;whiteSpace=wrap;connectable=0;fillColor=none;top=0;left=0;bottom=0;right=0;align=left;spacingLeft=6;overflow=hidden;strokeColor=inherit;fontSize=16;" parent="05YtGx7H-CWME4nsVqSi-41" vertex="1">
          <mxGeometry x="46" width="163" height="30" as="geometry">
            <mxRectangle width="163" height="30" as="alternateBounds" />
          </mxGeometry>
        </mxCell>
        <mxCell id="05YtGx7H-CWME4nsVqSi-44" value="integer" style="shape=partialRectangle;html=1;whiteSpace=wrap;connectable=0;fillColor=none;top=0;left=0;bottom=0;right=0;align=left;spacingLeft=6;overflow=hidden;strokeColor=inherit;fontSize=16;" parent="05YtGx7H-CWME4nsVqSi-41" vertex="1">
          <mxGeometry x="209" width="161" height="30" as="geometry">
            <mxRectangle width="161" height="30" as="alternateBounds" />
          </mxGeometry>
        </mxCell>
        <mxCell id="05YtGx7H-CWME4nsVqSi-45" value="" style="shape=tableRow;horizontal=0;startSize=0;swimlaneHead=0;swimlaneBody=0;top=0;left=0;bottom=0;right=0;collapsible=0;dropTarget=0;fillColor=none;points=[[0,0.5],[1,0.5]];portConstraint=eastwest;strokeColor=inherit;fontSize=16;" parent="05YtGx7H-CWME4nsVqSi-40" vertex="1">
          <mxGeometry y="60" width="370" height="30" as="geometry" />
        </mxCell>
        <mxCell id="05YtGx7H-CWME4nsVqSi-46" value="" style="shape=partialRectangle;html=1;whiteSpace=wrap;connectable=0;fillColor=none;top=0;left=0;bottom=0;right=0;overflow=hidden;strokeColor=inherit;fontSize=16;" parent="05YtGx7H-CWME4nsVqSi-45" vertex="1">
          <mxGeometry width="46" height="30" as="geometry">
            <mxRectangle width="46" height="30" as="alternateBounds" />
          </mxGeometry>
        </mxCell>
        <mxCell id="05YtGx7H-CWME4nsVqSi-47" value="user_id" style="shape=partialRectangle;html=1;whiteSpace=wrap;connectable=0;fillColor=none;top=0;left=0;bottom=0;right=0;align=left;spacingLeft=6;overflow=hidden;strokeColor=inherit;fontSize=16;" parent="05YtGx7H-CWME4nsVqSi-45" vertex="1">
          <mxGeometry x="46" width="163" height="30" as="geometry">
            <mxRectangle width="163" height="30" as="alternateBounds" />
          </mxGeometry>
        </mxCell>
        <mxCell id="05YtGx7H-CWME4nsVqSi-48" value="varchar(255)" style="shape=partialRectangle;html=1;whiteSpace=wrap;connectable=0;fillColor=none;top=0;left=0;bottom=0;right=0;align=left;spacingLeft=6;overflow=hidden;strokeColor=inherit;fontSize=16;" parent="05YtGx7H-CWME4nsVqSi-45" vertex="1">
          <mxGeometry x="209" width="161" height="30" as="geometry">
            <mxRectangle width="161" height="30" as="alternateBounds" />
          </mxGeometry>
        </mxCell>
        <mxCell id="05YtGx7H-CWME4nsVqSi-133" style="shape=tableRow;horizontal=0;startSize=0;swimlaneHead=0;swimlaneBody=0;top=0;left=0;bottom=0;right=0;collapsible=0;dropTarget=0;fillColor=none;points=[[0,0.5],[1,0.5]];portConstraint=eastwest;strokeColor=inherit;fontSize=16;" parent="05YtGx7H-CWME4nsVqSi-40" vertex="1">
          <mxGeometry y="90" width="370" height="20" as="geometry" />
        </mxCell>
        <mxCell id="05YtGx7H-CWME4nsVqSi-134" style="shape=partialRectangle;html=1;whiteSpace=wrap;connectable=0;fillColor=none;top=0;left=0;bottom=0;right=0;overflow=hidden;strokeColor=inherit;fontSize=16;" parent="05YtGx7H-CWME4nsVqSi-133" vertex="1">
          <mxGeometry width="46" height="20" as="geometry">
            <mxRectangle width="46" height="20" as="alternateBounds" />
          </mxGeometry>
        </mxCell>
        <mxCell id="05YtGx7H-CWME4nsVqSi-135" value="hasNetpay" style="shape=partialRectangle;html=1;whiteSpace=wrap;connectable=0;fillColor=none;top=0;left=0;bottom=0;right=0;align=left;spacingLeft=6;overflow=hidden;strokeColor=inherit;fontSize=16;fillStyle=hatch;strokeWidth=3;spacing=2;labelBackgroundColor=none;fontColor=#4D9900;fontStyle=1" parent="05YtGx7H-CWME4nsVqSi-133" vertex="1">
          <mxGeometry x="46" width="163" height="20" as="geometry">
            <mxRectangle width="163" height="20" as="alternateBounds" />
          </mxGeometry>
        </mxCell>
        <mxCell id="05YtGx7H-CWME4nsVqSi-136" value="boolean" style="shape=partialRectangle;html=1;whiteSpace=wrap;connectable=0;fillColor=none;top=0;left=0;bottom=0;right=0;align=left;spacingLeft=6;overflow=hidden;strokeColor=inherit;fontSize=16;fillStyle=hatch;strokeWidth=3;spacing=2;labelBackgroundColor=none;fontColor=#4D9900;fontStyle=1" parent="05YtGx7H-CWME4nsVqSi-133" vertex="1">
          <mxGeometry x="209" width="161" height="20" as="geometry">
            <mxRectangle width="161" height="20" as="alternateBounds" />
          </mxGeometry>
        </mxCell>
        <mxCell id="s_7tr-dG0rgTzwTSZN3e-6" style="edgeStyle=orthogonalEdgeStyle;rounded=0;orthogonalLoop=1;jettySize=auto;html=1;exitX=1;exitY=0.5;exitDx=0;exitDy=0;" parent="1" source="05YtGx7H-CWME4nsVqSi-41" target="05YtGx7H-CWME4nsVqSi-58" edge="1">
          <mxGeometry relative="1" as="geometry" />
        </mxCell>
        <mxCell id="s_7tr-dG0rgTzwTSZN3e-7" style="edgeStyle=orthogonalEdgeStyle;rounded=0;orthogonalLoop=1;jettySize=auto;html=1;exitX=1;exitY=0.5;exitDx=0;exitDy=0;" parent="1" source="05YtGx7H-CWME4nsVqSi-41" target="05YtGx7H-CWME4nsVqSi-146" edge="1">
          <mxGeometry relative="1" as="geometry" />
        </mxCell>
      </root>
    </mxGraphModel>
  </diagram>
</mxfile>
